:SAMPLES-PER-SECOND 30
:FRAME-RANGE 1-564
:FULLY-SPECIFIED
:DEGREES
212
root  27.3633 38.4311 50.0675 178.71 1.86741 -174.584
RightUpLeg  12.6613 0.971644 5.86709
RightLeg  13.4321 3.52606 0.407526
RightFoot  -20.4017 -0.281466 -1.81045
RightToes  1.21801e-010 1.2921e-014 -6.02303e-014
Spine  -3.03701 -3.23745 11.9801
Spine1  7.38187 -2.99261 -5.04293
HEad  17.7615 27.153 -5.36065
LeftShoulder1  0.804803 0.291144 -20.5115
LeftArm  0.996788 13.3299 -41.9111
LeftForeArm  -8.27768 -51.9299 -15.0294
LeftHand  0.188264 1.70183 -6.32818
RightShoulder  1.23094 0.91445 22.9174
RightArm  3.65644 -1.81668 46.2455
RightForeArm  25.1247 62.8946 19.9621
RightHand  -0.0874304 -9.77623 0.854868
LeftUpLeg  -25.4931 1.09659 2.49335
LeftLeg  3.15449 14.1731 3.28303
LeftFoot  -7.30445 0.312 -7.60456
LeftToes  1.70735e-010 3.74918e-011 3.68705e-011
213
root  27.248 38.0867 48.6085 178.231 0.920736 -173.791
RightUpLeg  14.48 1.69045 7.011
RightLeg  15.9372 2.33076 0.443644
RightFoot  -21.6607 -0.199723 -0.588286
RightToes  1.21801e-010 1.2921e-014 -6.02303e-014
Spine  -3.49661 -2.77044 12.5879
Spine1  8.02876 -2.56147 -5.17275
HEad  16.7728 26.3099 -4.95479
LeftShoulder1  0.797909 0.294332 -20.2967
LeftArm  -0.34001 11.7643 -43.4081
LeftForeArm  -7.5193 -51.5333 -14.7564
LeftHand  0.170708 1.86787 -6.07763
RightShoulder  1.30303 1.12862 23.1609
RightArm  3.06988 -0.763198 46.0412
RightForeArm  23.1056 61.9165 19.2609
RightHand  -0.0611461 -9.8321 0.180363
LeftUpLeg  -26.8755 1.91966 2.48822
LeftLeg  8.10556 15.4083 3.85213
LeftFoot  -5.27092 0.301497 -5.08836
LeftToes  1.70735e-010 3.74918e-011 3.68705e-011
214
root  27.1909 37.9531 47.1065 177.921 2.34514 -174.009
RightUpLeg  15.9668 4.08614 7.14151
RightLeg  18.6836 2.34175 0.677094
RightFoot  -21.4371 -0.0725876 0.821337
RightToes  1.21801e-010 1.2921e-014 -6.02303e-014
Spine  -3.99212 -1.30342 12.1543
Spine1  8.9526 -0.917413 -6.5042
HEad  17.515 26.0778 -3.08368
LeftShoulder1  0.649692 0.79809 -19.6649
LeftArm  -1.34354 11.3265 -44.9884
LeftForeArm  -6.58083 -51.5904 -14.72
LeftHand  0.141868 1.79381 -4.98835
RightShoulder  1.42976 1.54062 23.306
RightArm  2.79246 0.0843381 46.2074
RightForeArm  20.9381 60.1308 17.9432
RightHand  -0.0393681 -9.54565 -0.345691
LeftUpLeg  -27.4431 3.22771 2.48497
LeftLeg  14.1327 17.4852 5.42796
LeftFoot  -4.13094 0.104079 -1.25752
LeftToes  1.70735e-010 3.74918e-011 3.68705e-011
215
root  26.8182 37.8041 45.404 177.736 0.472699 -174.875
RightUpLeg  16.539 2.08423 4.72989
RightLeg  23.255 5.16754 2.22047
RightFoot  -20.3148 0.114219 3.20898
RightToes  1.21801e-010 1.2921e-014 -6.02303e-014
Spine  -6.55177 -1.52168 13.2371
Spine1  11.0535 -0.450107 -10.5974
HEad  18.3968 26.2278 -0.520123
LeftShoulder1  0.569999 1.04106 -18.8692
LeftArm  -2.58401 11.2069 -45.3938
LeftForeArm  -5.42752 -52.2567 -15.0041
LeftHand  0.12629 2.39415 -5.53791
RightShoulder  1.46666 1.43387 24.8299
RightArm  3.36066 2.31882 46.4244
RightForeArm  18.6864 57.6487 16.2932
RightHand  -0.0361092 -9.10698 -0.410303
LeftUpLeg  -27.099 -1.11391 1.04871
LeftLeg  17.5672 19.9809 8.40062
LeftFoot  1.64724 0.0268212 -0.323271
LeftToes  1.70735e-010 3.74918e-011 3.68705e-011
216
root  26.577 37.7367 44.032 177.463 -1.48054 -175.172
RightUpLeg  13.4095 0.149697 2.76141
RightLeg  33.5948 8.53296 5.82428
RightFoot  -16.1141 0.204316 7.51868
RightToes  1.21801e-010 1.2921e-014 -6.02303e-014
Spine  -4.79373 -1.91674 12.9797
Spine1  8.35928 -0.690416 -11.1058
HEad  19.4531 26.2958 0.912072
LeftShoulder1  0.635041 0.790789 -18.9573
LeftArm  -3.62774 10.7626 -45.4426
LeftForeArm  -5.58166 -51.5163 -14.607
LeftHand  0.131191 2.19648 -5.32474
RightShoulder  1.53328 1.65852 24.7783
RightArm  2.88483 3.59327 47.991
RightForeArm  17.4152 54.9967 14.6948
RightHand  -0.0294873 -8.8044 -0.605524
LeftUpLeg  -26.763 -2.84938 0.336648
LeftLeg  20.7558 19.7989 8.61819
LeftFoot  2.59976 -0.147014 1.07377
LeftToes  1.70735e-010 3.74918e-011 3.68705e-011
217
root  26.3696 37.7444 42.7335 177.269 -3.44767 -175.856
RightUpLeg  7.9827 -1.84597 -0.0186921
RightLeg  46.1731 10.1117 10.8033
RightFoot  -7.98401 -0.410987 12.1217
RightToes  1.21801e-010 1.2921e-014 -6.02303e-014
Spine  -2.97546 -2.09027 11.4279
Spine1  5.9299 -1.01975 -10.4621
HEad  21.0217 26.438 1.71327
LeftShoulder1  0.613344 0.895896 -19.1736
LeftArm  -4.0109 10.1773 -45.7195
LeftForeArm  -5.65534 -50.921 -14.2948
LeftHand  0.127662 1.67781 -4.3559
RightShoulder  1.6355 2.15769 23.7923
RightArm  2.24005 4.60145 49.5139
RightForeArm  16.8951 52.7169 13.4551
RightHand  -0.0295901 -8.24556 -0.597773
LeftUpLeg  -26.1422 -2.53626 -1.45052
LeftLeg  23.3222 17.6247 8.47168
LeftFoot  2.8236 -0.355415 2.72255
LeftToes  1.70735e-010 3.74918e-011 3.68705e-011
218
root  26.1914 37.7846 41.4448 177.159 -5.43615 -176.825
RightUpLeg  1.10364 -2.28353 -1.72897
RightLeg  58.2882 7.59194 12.6071
RightFoot  3.05162 -1.82288 14.5317
RightToes  1.21801e-010 1.2921e-014 -6.02303e-014
Spine  -1.88927 -1.98537 9.78541
Spine1  4.41483 -1.05082 -10.1016
HEad  21.8361 26.48 1.64424
LeftShoulder1  0.692674 0.588467 -19.2171
LeftArm  -5.27321 10.218 -46.2074
LeftForeArm  -4.60506 -51.4849 -14.5183
LeftHand  0.104252 2.46071 -4.78805
RightShoulder  1.71549 2.58349 22.9509
RightArm  2.49876 6.14731 50.2149
RightForeArm  15.978 50.7846 12.5538
RightHand  -0.0278604 -7.86354 -0.669872
LeftUpLeg  -25.0131 -4.1714 -3.19504
LeftLeg  25.4096 16.9328 8.91519
LeftFoot  1.40447 -0.639104 5.64122
LeftToes  1.70735e-010 3.74918e-011 3.68705e-011
219
root  26.0137 37.8439 40.143 177.094 -7.42551 -177.85
RightUpLeg  -5.14891 -1.89831 -2.51956
RightLeg  66.851 4.53155 10.9011
RightFoot  8.72842 -2.25848 13.0537
RightToes  1.21801e-010 1.2921e-014 -6.02303e-014
Spine  -1.39115 -1.74249 7.92939
Spine1  3.48268 -1.04717 -9.35431
HEad  22.8133 26.6859 1.50018
LeftShoulder1  0.762952 0.313989 -19.229
LeftArm  -5.34797 9.66821 -46.5441
LeftForeArm  -4.83886 -51.2367 -14.4025
LeftHand  0.0934098 2.41933 -4.2753
RightShoulder  1.73687 2.82225 22.1204
RightArm  3.21264 7.90246 50.7772
RightForeArm  14.4597 48.802 11.7572
RightHand  -0.0235534 -7.49467 -0.898887
LeftUpLeg  -23.4262 -5.38899 -4.88572
LeftLeg  27.0691 16.1869 9.14426
LeftFoot  -1.11873 -0.441279 5.00597
LeftToes  1.70735e-010 3.74918e-011 3.68705e-011
220
root  25.8442 37.9149 38.8461 177.102 -9.38959 -178.998
RightUpLeg  -10.3406 -1.24768 -3.47161
RightLeg  72.3703 2.47992 7.87571
RightFoot  4.44429 -1.41984 10.4354
RightToes  1.21801e-010 1.2921e-014 -6.02303e-014
Spine  -1.34139 -1.4398 5.82216
Spine1  3.03754 -1.014 -8.64974
HEad  24.0883 27.1492 1.65199
LeftShoulder1  0.794314 0.18643 -19.1892
LeftArm  -5.44225 9.08719 -46.8698
LeftForeArm  -5.005 -50.9842 -14.2809
LeftHand  0.0650167 2.57287 -3.35082
RightShoulder  1.73858 2.96719 21.4532
RightArm  3.76853 9.76235 51.572
RightForeArm  13.1111 46.5011 10.8868
RightHand  -0.0237103 -7.09757 -0.948897
LeftUpLeg  -21.2959 -5.11733 -6.68382
LeftLeg  27.6908 14.1313 8.27285
LeftFoot  -3.92202 -0.336388 5.54913
LeftToes  1.70735e-010 3.74918e-011 3.68705e-011
221
root  25.6458 38.1296 37.4784 177.076 -11.4491 -179.978
RightUpLeg  -14.8974 -0.385553 -4.32803
RightLeg  74.1254 1.34549 4.37318
RightFoot  2.29269 -0.797697 6.79591
RightToes  1.21801e-010 1.2921e-014 -6.02303e-014
Spine  -2.25781 -1.04123 3.9127
Spine1  3.58882 -0.798212 -7.64366
HEad  25.0984 27.598 1.81156
LeftShoulder1  0.863565 -0.072744 -19.2939
LeftArm  -5.89351 7.93991 -47.3547
LeftForeArm  -5.00556 -50.4751 -14.0164
LeftHand  0.0716917 2.56276 -3.61779
RightShoulder  1.70431 2.94737 20.9588
RightArm  3.73034 11.5498 52.2382
RightForeArm  12.2576 44.4338 10.1472
RightHand  -0.0285982 -6.51399 -0.65005
LeftUpLeg  -18.2193 -5.53742 -8.19778
LeftLeg  26.8904 13.1168 7.50748
LeftFoot  -6.02703 -0.212306 5.35393
LeftToes  1.70735e-010 3.74918e-011 3.68705e-011
222
root  25.4428 38.3485 36.0617 177.058 -13.5542 179.09
RightUpLeg  -18.6345 0.816194 -5.3299
RightLeg  72.7055 0.616256 1.30065
RightFoot  1.16474 -0.484841 4.49433
RightToes  1.21801e-010 1.2921e-014 -6.02303e-014
Spine  -3.36151 -0.568032 2.2373
Spine1  4.22955 -0.399403 -6.8469
HEad  25.938 27.8515 2.13961
LeftShoulder1  0.954809 -0.460175 -19.0731
LeftArm  -5.84831 6.69679 -47.9368
LeftForeArm  -5.66791 -50.2652 -13.9565
LeftHand  0.0506261 2.94744 -3.28272
RightShoulder  1.6786 2.92329 20.6276
RightArm  3.74918 13.0644 52.4857
RightForeArm  11.5818 42.7884 9.59904
RightHand  -0.0293479 -6.17513 -0.563625
LeftUpLeg  -14.9575 -4.80033 -9.71177
LeftLeg  25.8468 11.6027 6.61549
LeftFoot  -7.82862 -0.113367 5.2317
LeftToes  1.70735e-010 3.74918e-011 3.68705e-011
